<?xml version="1.0" standalone="no"?>
<!DOCTYPE svg PUBLIC "-//W3C//DTD SVG 20010904//EN"
 "http://www.w3.org/TR/2001/REC-SVG-20010904/DTD/svg10.dtd">
<svg version="1.0" xmlns="http://www.w3.org/2000/svg"
 width="640.000000pt" height="640.000000pt" viewBox="0 0 640.000000 640.000000"
 preserveAspectRatio="xMidYMid meet">
<metadata>
Created by potrace 1.11, written by Peter Selinger 2001-2013
</metadata>
<g transform="translate(0.000000,640.000000) scale(0.100000,-0.100000)"
fill="#000000" stroke="none">
<path d="M5728 5510 c-91 -28 -174 -95 -311 -252 -158 -180 -252 -326 -323
-504 -19 -47 -69 -204 -110 -347 -41 -144 -94 -323 -119 -397 -48 -148 -177
-597 -189 -660 -2 -8 -6 -26 -9 -40 -4 -14 -16 -65 -27 -115 -35 -157 -43
-179 -76 -231 -18 -29 -73 -94 -123 -146 -120 -126 -138 -150 -195 -257 -27
-50 -52 -91 -56 -91 -5 0 -36 -44 -71 -97 -58 -91 -156 -231 -169 -243 -18
-17 -118 -165 -164 -243 -30 -50 -67 -110 -83 -132 l-28 -40 -3 34 c-4 35 22
136 89 351 21 69 48 177 59 240 22 121 78 353 103 430 19 56 78 258 83 285 41
208 49 281 48 445 -1 132 -14 197 -59 295 -59 127 -145 220 -271 291 -142 80
-200 54 -395 -177 -41 -48 -220 -290 -311 -421 -18 -26 -36 -47 -39 -48 -9 0
-20 28 -24 60 -1 14 -6 52 -10 85 -16 144 -135 305 -274 373 -65 31 -86 37
-146 37 -64 0 -75 -3 -125 -36 -131 -85 -331 -261 -435 -383 -94 -111 -100
-112 -139 -24 -61 137 -152 243 -249 291 -71 35 -111 41 -146 23 -45 -24 -165
-160 -254 -290 -45 -65 -167 -242 -272 -392 -244 -351 -304 -440 -486 -719
-252 -387 -267 -405 -357 -405 -34 0 -41 -4 -52 -29 -14 -35 -6 -83 18 -105
31 -27 93 -47 147 -47 131 0 186 64 545 641 184 296 228 362 375 570 61 85
141 201 179 257 38 56 75 104 82 107 27 10 25 -45 -6 -191 -17 -81 -33 -159
-36 -173 -13 -69 -79 -319 -128 -482 -30 -100 -61 -208 -69 -238 -16 -54 -70
-295 -81 -355 -3 -16 -8 -43 -12 -58 -3 -16 -7 -38 -9 -50 -1 -12 -7 -49 -13
-82 -21 -115 -31 -191 -47 -370 -4 -38 -8 -86 -10 -105 -2 -19 -7 -80 -10
-135 -4 -55 -8 -114 -10 -132 -5 -60 60 -165 121 -196 49 -24 296 -10 344 20
27 17 69 63 70 76 0 5 13 28 30 52 37 54 48 81 55 142 3 26 7 71 11 98 3 28 7
57 9 65 2 8 6 29 9 45 30 187 50 300 71 405 32 167 33 171 40 200 3 14 10 45
15 70 5 25 18 89 30 144 25 113 28 130 35 171 3 17 8 37 10 45 2 8 7 31 10 50
17 108 28 166 50 265 13 61 26 149 29 197 6 111 21 144 131 288 94 121 358
394 397 409 47 18 48 0 12 -148 -14 -58 -36 -153 -50 -211 -14 -58 -32 -132
-40 -165 -8 -33 -16 -70 -19 -82 -3 -13 -7 -31 -9 -40 -2 -10 -9 -40 -16 -68
-6 -27 -31 -129 -55 -225 -60 -241 -76 -336 -79 -454 -4 -179 29 -281 106
-334 82 -55 131 -63 196 -32 22 11 49 20 59 20 35 1 100 38 134 78 39 46 106
174 113 218 3 16 8 49 11 74 4 25 11 65 17 90 5 25 12 56 14 70 26 136 82 275
259 636 126 256 157 313 228 419 79 117 252 315 275 315 20 0 17 -51 -9 -166
-16 -65 -30 -129 -33 -140 -2 -12 -16 -64 -30 -115 -14 -52 -32 -119 -40 -149
-26 -98 -166 -603 -180 -655 -20 -69 -57 -203 -61 -223 -2 -9 -19 -82 -38
-162 -39 -158 -77 -335 -91 -421 -3 -19 -8 -44 -10 -55 -2 -12 -7 -39 -11 -60
-3 -22 -8 -50 -10 -64 -14 -82 -24 -199 -19 -225 30 -170 138 -331 247 -368
60 -20 186 -17 242 7 54 23 73 42 105 106 15 30 46 87 68 127 23 40 42 75 42
78 0 3 9 25 19 48 11 24 31 74 46 112 28 76 149 312 221 432 52 87 153 242
169 259 14 16 153 218 239 349 72 110 106 140 106 93 0 -13 -18 -123 -39 -243
-22 -121 -42 -242 -45 -270 -4 -27 -9 -70 -12 -95 -3 -25 -5 -104 -5 -176 0
-134 15 -208 55 -266 27 -39 118 -127 138 -134 10 -3 18 -9 18 -13 0 -15 103
-53 151 -56 52 -3 157 18 200 41 16 8 38 24 49 37 43 45 211 287 300 432 162
263 210 322 493 610 526 537 567 580 573 599 10 30 -27 71 -67 74 -31 3 -47
-8 -169 -114 -140 -122 -426 -404 -565 -558 -44 -49 -84 -94 -90 -100 -5 -6
-46 -52 -90 -101 -83 -94 -136 -153 -170 -189 -11 -12 -56 -62 -100 -111 -44
-50 -98 -109 -120 -133 -22 -24 -41 -48 -43 -53 -2 -5 -11 -9 -19 -9 -13 0
-14 10 -9 58 3 31 8 68 10 82 2 14 10 59 16 100 29 188 58 339 91 478 12 48
22 94 24 102 2 8 22 87 44 175 22 88 49 203 61 255 39 174 120 491 131 513 12
21 100 127 183 217 142 156 269 313 427 530 46 63 112 151 146 195 72 91 131
200 162 295 11 36 28 85 37 110 9 25 18 77 20 116 2 57 -1 80 -20 120 -38 83
-134 230 -187 288 -95 104 -243 146 -371 106z m314 -340 c43 -50 56 -91 52
-166 -7 -162 -97 -322 -475 -849 -207 -288 -210 -284 -95 125 81 288 114 376
201 532 56 101 212 346 243 381 22 25 37 21 74 -23z"/>
</g>
</svg>
